<svg width="94" height="94" viewBox="0 0 94 94" fill="none" xmlns="http://www.w3.org/2000/svg">
<path d="M31.8908 79.9977L31.8983 79.99L39.9808 71.9075L39.9809 71.9075C40.5182 71.3702 41.1848 70.9803 41.9165 70.7753C42.6482 70.5703 43.4204 70.5572 44.1586 70.7371L44.1591 70.7372L44.2752 70.7655C44.2753 70.7656 44.2754 70.7656 44.2755 70.7656C45.0448 70.9532 45.7504 71.3421 46.3197 71.8924C46.8892 72.4428 47.3019 73.1348 47.5155 73.8974C47.7292 74.66 47.7361 75.4657 47.5354 76.2318C47.3348 76.998 46.9339 77.6969 46.3739 78.2569L37.9876 86.6431L37.9868 86.6439C35.9167 88.7094 33.4515 90.3364 30.7385 91.4277C28.0254 92.5191 25.1203 93.0525 22.1965 92.9959C19.2728 92.9394 16.3904 92.2942 13.7216 91.0987C11.0528 89.9033 8.65231 88.1822 6.66355 86.0383L6.66332 86.0381C-1.35829 77.3849 -0.692288 63.8379 7.60571 55.5401L27.4679 35.6779L27.4687 35.6771C31.5484 31.6068 37.0761 29.3209 42.8391 29.321C48.602 29.3211 54.1296 31.6071 58.2093 35.6775L58.21 35.6782C58.5781 36.0462 58.9292 36.4251 59.2634 36.8148M31.8908 79.9977L58.5042 37.4657M31.8908 79.9977C29.5711 82.3676 26.433 83.7608 23.1194 83.8917C19.8089 84.0226 16.5737 82.8837 14.0752 80.7083C12.8 79.5513 11.7725 78.1479 11.0547 76.5827C10.3357 75.0147 9.94248 73.317 9.89899 71.5925C9.8555 69.868 10.1626 68.1526 10.8017 66.5503C11.4407 64.9484 12.3982 63.4928 13.6163 62.2718L31.8908 79.9977ZM59.2634 36.8148L58.5042 37.4657M59.2634 36.8148C59.2631 36.8145 59.2628 36.8142 59.2625 36.8139L58.5042 37.4657M59.2634 36.8148C60.0402 37.7192 60.4268 38.8947 60.3384 40.0836C60.25 41.273 59.6934 42.3787 58.7907 43.1582C57.8881 43.9378 56.7131 44.3275 55.5236 44.2418C54.334 44.1562 53.2269 43.6022 52.4453 42.7014L52.4449 42.7009C51.5871 41.7112 50.5788 40.8627 49.4571 40.1866M58.5042 37.4657C59.109 38.1694 59.41 39.0842 59.3412 40.0094C59.2724 40.9347 58.8394 41.795 58.1371 42.4014C57.4349 43.0079 56.5208 43.311 55.5954 43.2444C54.6699 43.1778 53.8087 42.7468 53.2006 42.046C52.2725 40.9752 51.1813 40.0574 49.9672 39.3265M49.4571 40.1866C49.4589 40.1877 49.4607 40.1887 49.4625 40.1898L49.9672 39.3265M49.4571 40.1866C46.9512 38.7231 44.0286 38.1373 41.1522 38.5221C38.2736 38.9072 35.6061 40.2423 33.5724 42.3156L33.5657 42.3225L33.5656 42.3225L13.6171 62.271L32.8585 41.6154C35.0481 39.383 37.9203 37.9456 41.0196 37.5309C44.1189 37.1163 47.2679 37.7482 49.9672 39.3265M49.4571 40.1866C49.4552 40.1855 49.4533 40.1844 49.4515 40.1833L49.9672 39.3265M66.4204 58.2104L66.4195 58.2112C62.3398 62.2815 56.8121 64.5673 51.0492 64.5673C45.2862 64.5672 39.7586 62.2812 35.679 58.2109L35.6774 58.2093C35.3106 57.8417 34.9603 57.4637 34.6266 57.0753M66.4204 58.2104L35.3841 56.4225M66.4204 58.2104L86.6432 37.9876L86.644 37.9868M66.4204 58.2104L86.644 37.9868M34.6266 57.0753C34.6263 57.0749 34.6259 57.0745 34.6256 57.0741L35.3841 56.4225M34.6266 57.0753C34.6268 57.0756 34.6271 57.0758 34.6273 57.0761L35.3841 56.4225M34.6266 57.0753C33.8464 56.1714 33.457 54.9945 33.5442 53.8036C33.6315 52.6123 34.1884 51.5044 35.0924 50.7237C35.9965 49.943 37.1736 49.5534 38.3649 49.6407C39.5561 49.7279 40.6638 50.2846 41.4445 51.1885M35.3841 56.4225C34.7768 55.7192 34.4737 54.8034 34.5416 53.8766C34.6094 52.9498 35.0427 52.0879 35.746 51.4806C36.4493 50.8732 37.3651 50.5701 38.2919 50.638C39.2187 50.7058 40.0806 51.1391 40.6879 51.8424M41.4445 51.1885C41.4442 51.1881 41.4439 51.1878 41.4436 51.1875L40.6879 51.8424M41.4445 51.1885C41.4446 51.1886 41.4447 51.1887 41.4448 51.1888L40.6879 51.8424M41.4445 51.1885C42.3017 52.1773 43.3091 53.0252 44.4298 53.7009C46.9355 55.165 49.858 55.7513 52.7346 55.3668C55.6133 54.982 58.2811 53.6471 60.3148 51.5737L60.3216 51.5668L60.3216 51.5668L80.2712 31.6173L40.6879 51.8424M86.644 37.9868C88.7094 35.9167 90.3364 33.4515 91.4278 30.7385C92.5191 28.0254 93.0525 25.1203 92.996 22.1965C92.9394 19.2728 92.2942 16.3904 91.0988 13.7216C89.9034 11.0528 88.1823 8.65228 86.0384 6.6635L86.0382 6.66326M86.644 37.9868L86.0382 6.66326M86.0382 6.66326C77.385 -1.35836 63.838 -0.692214 55.54 7.60578L47.5376 15.6082C46.9753 16.1705 46.5727 16.8723 46.3713 17.6416C46.1698 18.4109 46.1767 19.22 46.3912 19.9857C46.6058 20.7515 47.0202 21.4464 47.592 21.999C48.1638 22.5516 48.8724 22.9422 49.6449 23.1305C49.645 23.1305 49.645 23.1305 49.645 23.1305L49.7295 23.1511L49.7296 23.1511M86.0382 6.66326L49.7296 23.1511M49.7296 23.1511C50.4679 23.3311 51.2401 23.318 51.9718 23.113C52.7036 22.908 53.3702 22.518 53.9076 21.9807L61.99 13.8981L61.99 13.8982M49.7296 23.1511L61.99 13.8982M61.99 13.8982L61.9975 13.8905M61.99 13.8982L61.9975 13.8905M61.9975 13.8905C64.3171 11.5206 67.4553 10.1274 70.7689 9.99644M61.9975 13.8905L70.7689 9.99644M70.7689 9.99644C74.0794 9.86562 77.3146 11.0045 79.8131 13.1799M70.7689 9.99644L79.8131 13.1799M79.8131 13.1799C81.0883 14.3369 82.1158 15.7403 82.8335 17.3055C83.5526 18.8736 83.9458 20.5713 83.9893 22.2958C84.0328 24.0203 83.7256 25.7357 83.0865 27.338C82.4475 28.9399 81.49 30.3955 80.272 31.6165L79.8131 13.1799Z" fill="#4C4545" stroke="#4C4545" stroke-width="2"/>
</svg>
